# xmcd CD database generated by RipIT
#
# Track frame offsets:
# 150
# 22635
# 61172
# 77091
# 98446
# 134813
# 162849
# 178396
# 197388
# 221725
# 241475
#
# Disc length: 3539 seconds
#
# Revision: 0
# Processed by: cddbd v1.5.2PL0 Copyright (c) Steve Scherf et al.
# Submitted via: RipIT 3.6.0 www.suwald.com/ripit/ripit.html on 2010-02-22 at 07:23
#
DISCID=8d0dd10b
DTITLE=Ivy Joe MilanTommy GrahamJim CavenderCriss Ashwell - BookARoo
DYEAR=2009
DGENRE=Classic Rock
TTITLE0=Land of 1000 Dances
TTITLE1=Got You On My Mind
TTITLE2=Promised Land
TTITLE3=Crying Time
TTITLE4=The Thrill Is Gone
TTITLE5=Light My Fire
TTITLE6=These Boots Are Made For Walking
TTITLE7=Georgia On My Mind
TTITLE8=Everyday I have the Blues - Stormy Monday
TTITLE9=My Babe
TTITLE10=Sittin' on The Dock Of The Bay
EXTD=Live at the Library
EXTD=\n
EXTT0=
EXTT1=
EXTT2=
EXTT3=
EXTT4=
EXTT5=
EXTT6=
EXTT7=
EXTT8=
EXTT9=
EXTT10=
PLAYORDER=
